<?xml version="1.0" encoding="UTF-8" standalone="no"?>
<!DOCTYPE svg PUBLIC "-//W3C//DTD SVG 1.1//EN" "http://www.w3.org/Graphics/SVG/1.1/DTD/svg11.dtd">
<svg xmlns="http://www.w3.org/2000/svg" xmlns:xl="http://www.w3.org/1999/xlink" xmlns:dc="http://purl.org/dc/elements/1.1/" version="1.1" viewBox="35 18 231 237" width="231" height="237">
  <defs/>
  <metadata> Produced by OmniGraffle 7.16 
    <dc:date>2020-09-10 17:24:24 +0000</dc:date>
  </metadata>
  <g id="Canvas_1" stroke-opacity="1" fill-opacity="1" stroke="none" stroke-dasharray="none" fill="none">
    <title>Canvas 1</title>
    <rect fill="white" x="35" y="18" width="231" height="237"/>
    <g id="Canvas_1: Layer 1">
      <title>Layer 1</title>
      <g id="Graphic_2">
        <path d="M 263.66705 194.2406 L 256.44 193.30848 C 256.35573 193.01884 256.2706 192.7327 256.18282 192.4615 L 256.0731 192.1341 C 255.97217 191.83305 255.8721 191.53288 255.76766 191.25815 C 255.71588 191.11596 255.66146 190.97377 255.6044 190.83334 L 255.5342 190.6499 C 255.4587 190.45241 255.38147 190.25493 255.30072 190.0636 C 255.22085 189.87313 255.13834 189.68442 255.05584 189.49571 L 254.7934 188.9059 C 254.65648 188.60835 254.51166 188.3152 254.36508 188.02204 C 254.36157 188.01326 254.32822 187.9483 254.3256 187.93953 L 254.2378 187.76926 C 254.1044 187.50858 253.96572 187.25053 253.813 186.97317 L 258.2665 181.20311 C 259.08804 180.13845 258.9915 178.62967 258.04005 177.67999 L 250.81738 170.45731 C 249.8677 169.50763 248.35716 169.41108 247.29425 170.23262 L 241.5242 174.68349 C 241.26176 174.53779 240.99757 174.39647 240.74215 174.26394 C 240.66843 174.2262 240.59294 174.18846 240.51658 174.15247 L 240.46216 174.12614 C 240.17076 173.98044 239.8776 173.8365 239.59235 173.70572 C 239.46158 173.64428 239.32729 173.5846 239.19475 173.52754 L 239.03062 173.45557 C 238.83138 173.36604 238.63126 173.27915 238.43378 173.19665 C 238.2284 173.10975 238.01862 173.03076 237.80973 172.95 L 237.24975 172.73497 C 236.93465 172.61911 236.61604 172.51115 236.30445 172.40758 L 236.05167 172.32245 C 235.76466 172.23029 235.47677 172.14252 235.18362 172.05826 L 234.2506 164.8312 C 234.07946 163.49708 232.94458 162.5 231.59993 162.5 L 221.39217 162.5 C 220.0484 162.5 218.91352 163.49971 218.7406 164.8312 L 217.80848 172.05826 C 217.51796 172.14252 217.23183 172.22853 216.9536 172.31894 L 216.6859 172.40846 C 216.36992 172.5129 216.05306 172.62087 215.74499 172.7341 C 215.63527 172.77535 215.5238 172.81835 215.4141 172.86136 L 215.28594 172.9114 C 215.28507 172.9114 215.2245 172.93509 215.22275 172.93509 C 215.00157 173.0211 214.78038 173.10624 214.56973 173.19401 C 214.36874 173.27827 214.17213 173.36429 213.97201 173.45294 L 213.7798 173.53807 C 213.65516 173.59337 213.5314 173.64779 213.4094 173.70308 C 213.118 173.8365 212.831 173.97868 212.53345 174.12702 L 212.26487 174.25955 C 211.99892 174.39472 211.73824 174.53428 211.47054 174.68349 L 205.70136 170.23262 C 204.63582 169.40933 203.12616 169.50763 202.1791 170.45731 L 194.95731 177.67999 C 194.00588 178.62967 193.9102 180.13845 194.73087 181.20311 L 199.1826 186.9723 C 199.03779 187.2356 198.89472 187.4998 198.75604 187.77101 L 198.62087 188.04486 C 198.47868 188.32924 198.33913 188.61274 198.20045 188.9138 L 197.94855 189.4808 C 197.86517 189.6695 197.78354 189.8582 197.69138 190.07237 C 197.59834 190.30408 197.50618 190.53843 197.40525 190.80174 L 197.3517 190.93779 C 197.31133 191.04048 197.27008 191.1423 197.23585 191.24235 C 197.11911 191.55657 197.01115 191.87606 196.89442 192.22627 C 196.8672 192.30438 196.84 192.38162 196.82245 192.4378 C 196.73117 192.72744 196.64252 193.01708 196.55738 193.30848 L 189.3312 194.24149 C 187.99708 194.41264 187 195.54752 187 196.89217 L 187 207.10432 C 187 208.4481 187.99883 209.58473 189.3312 209.75588 L 196.55826 210.68889 C 196.64252 210.97853 196.7294 211.26993 196.82771 211.57186 L 196.91197 211.8185 C 197.01467 212.13096 197.12087 212.4443 197.2341 212.74975 C 197.27798 212.86824 197.32274 212.98322 197.36663 213.09908 L 197.45703 213.32904 C 197.53515 213.5309 197.61239 213.7319 197.6949 213.9294 C 197.77827 214.13126 197.86604 214.3305 197.95645 214.5315 L 198.0407 214.72108 C 198.09425 214.84572 198.1469 214.96509 198.20396 215.08972 C 198.34088 215.38463 198.48483 215.67779 198.62526 215.95953 L 198.76219 216.23338 C 198.8956 216.49844 199.0369 216.75912 199.18524 217.02858 L 194.73262 222.796 C 193.9102 223.86155 194.0085 225.37033 194.95995 226.32001 L 202.18174 233.5418 C 203.13055 234.49324 204.63933 234.58804 205.704 233.76826 L 211.47405 229.31651 C 211.73824 229.46221 212.0042 229.6044 212.271 229.74133 L 212.52467 229.8686 C 212.81783 230.01605 213.11274 230.16 213.40765 230.29692 C 213.52263 230.35046 213.63936 230.40136 213.75522 230.4514 L 213.90267 230.51634 C 214.1221 230.61377 214.34328 230.71207 214.56973 230.806 C 214.7637 230.88674 214.95768 230.96222 215.1543 231.0377 L 215.41672 231.1404 C 215.52644 231.1834 215.63615 231.22465 215.7485 231.2659 C 216.05394 231.37738 216.36114 231.48358 216.6815 231.58978 L 216.94745 231.6793 C 217.22832 231.7706 217.51357 231.85397 217.80848 231.94174 L 218.7406 239.1688 C 218.91352 240.5038 220.0484 241.5 221.39217 241.5 L 231.60432 241.5 C 232.94722 241.5 234.0821 240.50204 234.255 239.1688 L 235.188 231.94174 C 235.47677 231.85748 235.76554 231.77147 236.0543 231.67755 L 236.32815 231.58627 C 236.63886 231.48358 236.94694 231.37738 237.24536 231.26766 C 237.3621 231.2264 237.4762 231.18165 237.59118 231.136 L 237.80973 231.05175 C 238.01687 230.971 238.22488 230.892 238.43027 230.80687 C 238.64092 230.7191 238.85157 230.6278 239.06134 230.5339 L 239.26234 230.44437 C 239.37205 230.3961 239.48 230.3487 239.58972 230.29867 C 239.8899 230.16 240.18832 230.01254 240.4964 229.85806 L 240.73074 229.74133 C 240.99493 229.60616 241.2565 229.46572 241.52683 229.31651 L 247.2969 233.76826 C 248.3598 234.5898 249.86858 234.49324 250.81826 233.5418 L 258.04093 226.32001 C 258.9915 225.37033 259.08804 223.86155 258.26913 222.796 L 253.8174 217.02858 C 253.96485 216.75825 254.11055 216.4888 254.25098 216.21143 L 254.35016 216.01044 C 254.5064 215.69973 254.65912 215.3899 254.79955 215.0827 L 255.04355 214.53589 C 255.13483 214.3305 255.22524 214.12424 255.3139 213.91183 C 255.40254 213.69943 255.48504 213.4835 255.57106 213.25882 L 255.6281 213.11136 C 255.67726 212.98585 255.72465 212.86297 255.76854 212.73921 C 255.87474 212.45308 255.9713 212.16344 256.07837 211.85097 L 256.18106 211.5464 C 256.27235 211.2629 256.3566 210.9794 256.44174 210.68713 L 263.66793 209.75412 C 265.00292 209.58473 265.99912 208.4481 265.99912 207.10344 L 265.99912 196.8913 C 265.99824 195.54664 264.9994 194.41176 263.66705 194.2406 Z M 239.36415 201.99605 C 239.36415 209.08794 233.5941 214.858 226.50044 214.858 C 219.40855 214.858 213.63936 209.08794 213.63936 201.99605 C 213.63936 194.90416 219.40855 189.1341 226.50044 189.1341 C 233.5941 189.1341 239.36415 194.90416 239.36415 201.99605 Z M 212.53784 226.84137 Z" fill="blue"/>
      </g>
      <g id="Group_3">
        <g id="Group_18">
          <g id="Graphic_19">
            <path d="M 232.43345 114.52453 C 232.1389 104.21515 222.41862 94.49487 210.04736 95.08398 C 205.62905 81.23995 189.13404 75.05432 176.76278 82.12361 C 170.2826 72.40334 157.02768 69.75236 147.3074 76.52709 C 133.16883 61.2103 106.95354 69.16325 104.30256 90.66567 C 91.34219 90.07657 81.32736 101.26961 82.50558 113.64087 C 60.7086 120.12105 64.243244 154.28929 88.69121 154.28929 L 106.95354 154.28929 L 106.95354 151.6383 C 106.95354 147.51455 109.89908 143.68535 114.02283 143.09625 L 116.96837 142.50714 C 117.26292 142.21258 117.26292 141.62348 117.55748 141.32892 L 115.79015 138.9725 C 113.43372 135.43785 113.72828 130.43043 116.96837 127.4849 L 125.80498 118.64828 C 127.5723 116.88096 129.63418 115.9973 131.99061 115.9973 C 133.75793 115.9973 135.52526 116.5864 136.99803 117.47007 L 139.64901 119.23739 C 139.94356 118.94284 140.53267 118.94284 140.82722 118.64828 L 141.41633 115.70274 C 142.00544 111.57899 145.83464 108.3389 150.25295 108.3389 L 162.91876 108.3389 C 167.04251 108.3389 170.8717 111.28444 171.75537 115.70274 L 172.34448 118.64828 C 172.63903 118.94284 173.22814 118.94284 173.5227 119.23739 L 175.87912 117.47007 C 177.3519 116.5864 179.11922 115.9973 180.88654 115.9973 C 183.24297 115.9973 185.5994 116.88096 187.07217 118.64828 L 196.20333 127.4849 C 199.14887 130.43043 199.73798 135.43785 197.38155 138.9725 L 195.61423 141.32892 C 195.90878 141.62348 195.90878 142.21258 196.20333 142.50714 L 199.14887 143.09625 C 203.27262 143.9799 206.51272 147.51455 206.51272 151.93286 L 206.51272 154.58384 L 224.77505 154.58384 C 237.1463 154.58384 244.2156 145.45268 245.3938 136.61606 C 246.27748 128.36856 242.74283 118.64828 232.43345 114.52453 Z" fill="blue"/>
          </g>
        </g>
        <g id="Group_16">
          <g id="Graphic_17">
            <path d="M 70.42887 103.62604 C 70.42887 104.5097 70.72343 105.09881 71.312535 105.68792 L 75.73084 110.10622 C 76.025395 110.10622 76.025395 109.81167 76.31995 109.81167 C 76.31995 107.74979 76.90906 105.68792 77.49816 103.62604 L 76.31995 102.44783 L 76.31995 60.03208 C 80.4437 58.85387 83.38924 55.02467 83.38924 50.31181 C 83.38924 44.715286 78.97093 40.29698 73.37441 40.29698 C 67.77789 40.29698 63.35958 45.00984 63.35958 50.60636 C 63.35958 55.31922 66.30512 58.85387 70.42887 60.326636 Z M 69.25066 50.60636 C 69.25066 48.24993 71.01798 46.48261 73.37441 46.48261 C 75.73084 46.48261 77.49816 48.24993 77.49816 50.60636 C 77.49816 52.96279 75.43629 54.730114 73.37441 54.730114 C 71.01798 54.730114 69.25066 52.66824 69.25066 50.60636 Z" fill="blue"/>
          </g>
        </g>
        <g id="Group_14">
          <g id="Graphic_15">
            <path d="M 91.63674 38.235103 L 91.63674 81.82906 C 91.63674 82.71272 91.9313 83.30183 92.52041 83.89094 L 95.17139 86.54192 C 96.64416 85.95281 98.11693 85.65826 99.5897 85.36371 C 99.88425 84.48004 99.88425 83.89094 100.1788 83.30183 L 97.52782 80.65085 L 97.52782 38.235103 C 101.65157 36.762334 104.59711 32.933135 104.59711 28.514828 C 104.59711 22.918307 100.1788 18.5 94.58228 18.5 C 88.98576 18.5 84.56745 22.918307 84.56745 28.514828 C 84.2729 32.933135 87.21844 36.762334 91.63674 38.235103 Z M 94.58228 24.391075 C 96.93871 24.391075 98.70604 26.158398 98.70604 28.514828 C 98.70604 30.87126 96.64416 32.63858 94.58228 32.63858 C 92.22585 32.63858 90.45853 30.87126 90.45853 28.514828 C 90.16398 26.158398 92.22585 24.391075 94.58228 24.391075 Z" fill="blue"/>
          </g>
        </g>
        <g id="Group_12">
          <g id="Graphic_13">
            <path d="M 241.85917 40.886087 C 236.26265 40.886087 231.84434 45.304393 231.84434 50.900915 C 231.84434 55.31922 234.78988 59.14842 238.91363 60.62119 L 238.91363 103.03693 L 236.26265 105.68792 C 237.1463 107.16069 237.44086 108.92801 238.02997 110.69533 C 238.32452 110.98988 238.61908 110.98988 238.91363 111.28444 L 243.92104 106.27702 C 244.51015 105.68792 244.8047 105.09881 244.8047 104.21515 L 244.8047 60.62119 C 248.92846 59.442974 251.874 55.613775 251.874 50.900915 C 251.874 45.304393 247.4557 40.886087 241.85917 40.886087 Z M 241.85917 55.02467 C 239.50274 55.02467 237.73542 53.257345 237.73542 50.900915 C 237.73542 48.544485 239.50274 46.77716 241.85917 46.77716 C 244.2156 46.77716 245.98292 48.544485 245.98292 50.900915 C 245.98292 53.257345 243.92104 55.02467 241.85917 55.02467 Z" fill="blue"/>
          </g>
        </g>
        <g id="Group_10">
          <g id="Graphic_11">
            <path d="M 217.11665 41.475194 L 217.11665 84.7746 L 213.582 88.6038 C 213.87656 88.89835 213.87656 89.1929 214.17111 89.48746 C 216.233 89.78201 218.00031 90.07657 220.0622 90.66567 L 222.41862 88.01469 C 223.00773 87.42558 223.30228 86.83648 223.30228 85.95281 L 223.30228 41.475194 C 227.42603 40.29698 230.37157 36.46778 230.37157 31.75492 C 230.37157 26.158398 225.95326 21.740091 220.35674 21.740091 C 214.76022 21.740091 210.34191 26.158398 210.34191 31.75492 C 210.04736 36.46778 212.9929 40.29698 217.11665 41.475194 Z M 220.0622 27.631167 C 222.41862 27.631167 224.18594 29.39849 224.18594 31.75492 C 224.18594 34.11135 222.12407 35.878673 220.0622 35.878673 C 218.00031 35.878673 215.93844 33.816796 215.93844 31.75492 C 215.93844 29.693043 217.70576 27.631167 220.0622 27.631167 Z" fill="blue"/>
          </g>
        </g>
        <g id="Group_8">
          <g id="Graphic_9">
            <path d="M 172.63903 40.886087 L 172.63903 70.93057 C 174.7009 72.10879 176.46823 73.581555 178.23555 75.34888 C 178.23555 75.34888 178.23555 75.34888 178.5301 75.34888 L 178.5301 40.886087 C 182.65386 39.70787 185.5994 35.878673 185.5994 31.165812 C 185.5994 25.56929 181.1811 21.150984 175.58457 21.150984 C 169.98805 21.150984 165.56974 25.56929 165.56974 31.165812 C 165.56974 35.58412 168.51528 39.41332 172.63903 40.886087 Z M 175.58457 26.747506 C 177.941 26.747506 179.70832 28.809382 179.70832 30.87126 C 179.70832 32.933135 177.941 34.99501 175.58457 34.99501 C 173.22814 34.99501 171.46082 32.933135 171.46082 30.87126 C 171.46082 28.809382 173.22814 26.747506 175.58457 26.747506 Z" fill="blue"/>
          </g>
        </g>
        <g id="Group_6">
          <g id="Graphic_7">
            <path d="M 143.77276 40.886087 L 143.77276 66.80682 C 145.24553 67.69048 146.7183 68.57414 147.89652 69.4578 C 148.48562 69.16325 149.07473 68.868695 149.66384 68.57414 L 149.66384 40.886087 C 153.78759 39.70787 156.73313 35.878673 156.73313 31.165812 C 156.73313 25.56929 152.31482 21.150984 146.7183 21.150984 C 141.12178 21.150984 136.70347 25.56929 136.70347 31.165812 C 136.70347 35.878673 139.64901 39.70787 143.77276 40.886087 Z M 146.7183 27.04206 C 149.07473 27.04206 150.84205 28.809382 150.84205 31.165812 C 150.84205 33.522242 149.07473 35.289565 146.7183 35.289565 C 144.36187 35.289565 142.59455 33.522242 142.59455 31.165812 C 142.59455 28.809382 144.36187 27.04206 146.7183 27.04206 Z" fill="blue"/>
          </g>
        </g>
        <g id="Group_4">
          <g id="Graphic_5">
            <path d="M 197.97066 148.98732 L 191.49047 147.8091 C 190.90137 145.45268 189.72315 143.09625 188.54494 140.73982 L 192.37413 135.43785 C 193.2578 134.25963 192.96324 132.78686 192.07958 131.60865 L 182.94841 122.77204 C 182.06475 121.88837 180.29743 121.59382 179.11922 122.47748 L 173.81725 126.30668 C 171.75537 125.12847 169.39894 124.2448 166.74796 123.36114 L 165.56974 116.88096 C 165.27519 115.40819 164.09697 114.52453 162.6242 114.52453 L 149.9584 114.52453 C 148.48562 114.52453 147.3074 115.70274 147.01285 116.88096 L 145.83464 123.36114 C 143.47821 123.95025 141.12178 125.12847 138.76535 126.30668 L 134.05249 122.47748 C 132.87427 121.59382 131.4015 121.88837 130.22329 122.77204 L 121.38668 131.60865 C 120.50301 132.49231 120.20846 134.25963 121.09212 135.43785 L 124.92132 140.73982 C 123.7431 143.09625 122.85944 145.15812 121.97578 147.8091 L 115.4956 148.98732 C 114.02283 149.28187 113.13917 150.46009 113.13917 151.93286 L 113.13917 164.59867 C 113.13917 166.07144 114.31739 167.24965 115.4956 167.5442 L 121.68123 168.72242 C 122.56489 171.07885 123.44855 173.43528 124.62677 175.79171 L 120.79757 180.79913 C 119.9139 181.97734 120.20846 183.45011 121.09212 184.62833 L 130.22329 193.7595 C 131.10695 194.64316 132.87427 194.9377 134.05249 194.05405 L 139.35446 190.22485 C 141.71089 191.40306 144.06732 192.28673 146.42375 193.17039 L 147.60196 199.65057 C 147.89652 201.12334 149.07473 202.007 150.5475 202.007 L 163.21331 202.007 C 164.68608 202.007 165.8643 200.82878 166.15885 199.65057 L 167.33706 193.17039 C 169.6935 192.28673 172.04992 191.40306 174.1118 190.22485 L 179.41377 194.05405 C 180.59198 194.9377 182.06475 194.64316 183.24297 193.7595 L 192.37413 184.62833 C 193.2578 183.74467 193.55235 181.97734 192.6687 180.79913 L 188.8395 175.49716 C 190.0177 173.14073 190.90137 171.07885 191.78503 168.42787 L 198.2652 167.24965 C 199.73798 166.9551 200.62164 165.77689 200.62164 164.30412 L 200.62164 151.6383 C 200.32709 150.46009 199.14887 149.28187 197.97066 148.98732 Z M 156.73313 177.26448 C 146.1292 177.26448 137.58713 168.72242 137.58713 158.11849 C 137.58713 147.51455 146.1292 138.9725 156.73313 138.9725 C 167.33706 138.9725 175.87912 147.51455 175.87912 158.11849 C 175.58457 168.72242 167.04251 177.26448 156.73313 177.26448 Z" fill="blue"/>
          </g>
        </g>
      </g>
      <g id="Group_20">
        <g id="Graphic_21">
          <path d="M 93.17926 243.5193 L 93.17926 238.08923 C 98.14389 237.15836 102.64309 235.14148 106.67685 232.50402 L 110.55547 236.2275 C 111.95177 237.6238 114.43408 237.6238 115.83039 236.2275 L 119.86415 232.19373 C 121.26045 230.79743 121.26045 228.3151 119.86415 226.9188 L 115.98553 223.0402 C 118.62299 219.00643 120.63987 214.50723 121.57074 209.5426 L 127.15595 209.5426 C 129.17283 209.5426 130.87942 207.83601 130.87942 205.81913 L 130.87942 200.07878 C 130.87942 198.0619 129.17283 196.3553 127.15595 196.3553 L 121.57074 196.3553 C 120.63987 191.54582 118.62299 186.89148 115.98553 183.01286 L 120.01929 178.82395 C 121.4156 177.42765 121.4156 174.94534 120.01929 173.54904 L 115.98553 169.51527 C 114.58923 168.11897 112.10691 168.11897 110.71061 169.51527 L 106.67685 173.54904 C 102.79823 170.91158 98.14389 168.8947 93.3344 167.96383 L 93.3344 162.22347 C 93.3344 160.2066 91.62781 158.5 89.61093 158.5 L 83.87058 158.5 C 81.8537 158.5 80.14711 160.2066 80.14711 162.22347 L 80.14711 167.96383 C 75.33762 168.8947 70.68328 170.75643 66.80466 173.54904 L 62.7709 169.51527 C 61.3746 168.11897 58.89228 168.11897 57.49598 169.51527 L 53.46222 173.54904 C 52.065916 174.94534 52.065916 177.42765 53.46222 178.82395 L 57.49598 182.85772 C 54.85852 186.89148 52.84164 191.39068 51.91077 196.20016 L 46.32556 196.20016 C 44.30868 196.20016 42.60209 197.90675 42.60209 199.92363 L 42.60209 205.66399 C 42.60209 207.68087 44.30868 209.38746 46.32556 209.38746 L 51.91077 209.38746 C 52.53135 212.6455 53.617363 215.7484 55.013666 218.541 L 63.39148 210.16318 C 60.44373 200.8545 63.08119 190.30466 70.99357 183.63344 C 81.54341 174.7902 97.05788 176.1865 105.90113 186.5812 C 114.74437 197.13103 113.34807 212.6455 102.95338 221.48875 C 96.4373 226.9188 87.90434 228.47026 80.30225 226.45338 L 71.76929 234.98633 C 74.40675 236.2275 77.3545 237.15836 80.30225 237.77894 L 80.30225 243.209 C 80.30225 245.22588 82.00884 246.93248 84.02572 246.93248 L 89.76608 246.93248 C 91.47267 247.24277 93.17926 245.53617 93.17926 243.5193 Z M 45.86013 253.13826 L 78.90595 220.09244 C 80.61254 218.38585 82.93971 217.61013 85.42203 217.76527 C 89.45579 218.07556 93.6447 216.67926 96.74759 213.57637 C 100.47106 209.8529 101.86736 204.42283 100.6262 199.61334 C 100.47106 199.30305 100.16077 199.1479 99.85048 199.4582 L 93.95498 205.3537 C 92.24839 207.0603 89.30064 207.0603 87.43891 205.3537 L 84.80145 202.71624 C 83.09486 201.00965 83.09486 198.0619 84.80145 196.20016 L 91.00723 189.99437 C 91.31752 189.68408 91.16238 189.3738 90.85209 189.21865 C 85.73232 187.6672 79.99196 188.75322 75.9582 192.78698 C 72.70016 196.04502 71.30386 200.54421 71.76929 204.73312 C 72.07958 207.21543 71.14871 209.8529 69.44212 211.55949 L 36.861736 244.13987 C 34.37942 246.6222 34.37942 250.65595 36.861736 253.13826 C 39.34405 255.62058 43.377814 255.62058 45.86013 253.13826 Z M 76.73392 215.90354 L 43.22267 249.4148 C 42.446945 250.1905 41.360932 250.1905 40.58521 249.4148 C 39.809486 248.63907 39.809486 247.55305 40.58521 246.77733 L 74.09646 213.26608 C 74.87219 212.49035 75.9582 212.49035 76.73392 213.26608 C 77.3545 214.0418 77.3545 215.12781 76.73392 215.90354 Z" fill="blue"/>
        </g>
      </g>
    </g>
  </g>
</svg>
