<svg xmlns="http://www.w3.org/2000/svg" id="draw.id" overflow="visible" v:ver="3" v:layers="{&quot;default&quot;:{&quot;name&quot;:&quot;Default&quot;,&quot;print&quot;:1,&quot;display&quot;:1,&quot;publish&quot;:1}}" x="750.5" y="500.5" v:stencils="{&quot;0&quot;:{&quot;id&quot;:&quot;stencil_49&quot;,&quot;expand&quot;:1,&quot;show_name&quot;:1},&quot;1&quot;:{&quot;id&quot;:&quot;stencil_0&quot;,&quot;expand&quot;:1,&quot;show_name&quot;:1}}" xmlns:v="http://vecta.io"><style xmlns="http://www.w3.org/1999/xhtml"><![CDATA[#draw\.id{stroke:#000;stroke-linecap:round;stroke-linejoin:round;fill:#fff;fill-rule:evenodd;font-family:Roboto;font-size:14px;text-anchor:middle}#draw\.id text{stroke:none}]]></style><defs><style type="text/css">@import url("https://fonts.googleapis.com/css?family=Roboto+Condensed:400,400i,700,700i"); @import url("https://fonts.googleapis.com/css?family=Roboto:400,400i,700,700i"); @import url("https://fonts.googleapis.com/css?family=Cousine:400,400i,700,700i"); @import url("https://fonts.googleapis.com/css?family=Anonymous+Pro:400,400i,700,700i"); @import url("https://fonts.googleapis.com/css?family=Lato:400,400i,700,700i"); @import url("https://fonts.googleapis.com/css?family=Open+Sans:400,400i,700,700i");</style><linearGradient id="L00100100099e6ff100003366.grad" x1="0%" y1="0%" x2="100%" y2="100%"><stop offset="0%" stop-color="#99e6ff" stop-opacity="1"/><stop offset="100%" stop-color="#003366" stop-opacity="1"/></linearGradient><linearGradient id="L001001000808080100000000.grad" x1="0%" y1="0%" x2="100%" y2="100%"><stop offset="0%" stop-color="#808080"/><stop offset="100%" stop-color="#000000"/></linearGradient><linearGradient id="L00100100093f9b91001d976c.grad" x1="0%" y1="0%" x2="100%" y2="100%"><stop offset="0%" stop-color="#93f9b9"/><stop offset="100%" stop-color="#1d976c"/></linearGradient><linearGradient id="L001001000ffe5ff100f57fff.grad" x1="0%" y1="0%" x2="100%" y2="100%" style=""><stop offset="0%" stop-color="#ffe5ff"/><stop offset="100%" stop-color="#f57fff"/></linearGradient><linearGradient id="L00100100087ebff100237b9a.grad" x1="0%" y1="0%" x2="100%" y2="100%"><stop offset="0%" stop-color="#87ebff" stop-opacity="1"/><stop offset="100%" stop-color="#237b9a" stop-opacity="1"/></linearGradient><linearGradient id="L001001000f1a9eb100672965.grad" x1="0%" y1="0%" x2="100%" y2="100%"><stop offset="0%" stop-color="#f1a9eb" stop-opacity="1"/><stop offset="100%" stop-color="#672965" stop-opacity="1"/></linearGradient><linearGradient id="L001001000fff0cd100ffb813.grad" x1="0%" y1="0%" x2="100%" y2="100%"><stop offset="0%" stop-color="#fff0cd" stop-opacity="1"/><stop offset="100%" stop-color="#ffb813" stop-opacity="1"/></linearGradient><linearGradient id="L001001000ffffff100c7c7c7.grad" x1="0%" y1="0%" x2="100%" y2="100%"><stop offset="0%" stop-color="#ffffff" stop-opacity="1"/><stop offset="100%" stop-color="#c7c7c7" stop-opacity="1"/></linearGradient><linearGradient id="L001001000e5ffff10067b6ff.grad" x1="0%" y1="0%" x2="100%" y2="100%"><stop offset="0%" stop-color="#e5ffff" stop-opacity="1"/><stop offset="100%" stop-color="#67b6ff" stop-opacity="1"/></linearGradient></defs><title xmlns="http://www.w3.org/1999/xhtml">Untitled drawing</title><desc xmlns="http://www.w3.org/1999/xhtml"></desc><svg id="k79oxsdx5" width="1689.6000000000001" height="1305.6000000000001" viewBox="0 0 1056 816" overflow="visible" v:setup="{&quot;paper&quot;:&quot;LETTER&quot;,&quot;unit&quot;:&quot;px&quot;,&quot;scale&quot;:{&quot;from&quot;:1,&quot;to&quot;:1},&quot;width&quot;:&quot;11in&quot;,&quot;height&quot;:&quot;8.5in&quot;,&quot;orient&quot;:0}"><g id="k8uty3s710l" transform="translate(50 200)" class="" v:unit="{&quot;strokeWidth&quot;:&quot;px&quot;}"><rect x="0" y="0" width="200" height="50" class="" fill="url(#L001001000fff0cd100ffb813.grad)"/><g transform="translate(0 0)" class="Text.cls"><rect x="0" y="0" width="200" height="50" fill="none" stroke="none"/><text font-family="Cousine" fill="#000000" fill-opacity="1" class="" font-weight="bold" font-size="16px"><tspan x="100" y="30.28" stroke="none" paint-order="stroke">SQLServer</tspan></text></g></g><g id="k8uu173c117" transform="translate(370 24.999975204467773)" class="" v:unit="{&quot;strokeWidth&quot;:&quot;px&quot;}"><rect x="0" y="0" width="280" height="30.000024795532227" fill="none" stroke="none"/><g transform="translate(-68.67924528301884 -4.285725707940916)" class="Text.cls"><rect x="0" y="0" width="279.99999999999994" height="30.000024795532227" fill="none" stroke="none"/><text font-family="Open Sans" fill="#000000" fill-opacity="1" class="" font-weight="bold" font-size="18px"><tspan x="140" y="20.940012397766115" stroke="none" paint-order="stroke">Shared memory regions</tspan></text></g></g><g id="k8uu4y931cm" transform="translate(50 250)" class="" v:unit="{&quot;strokeWidth&quot;:&quot;px&quot;}"><rect x="0" y="0" width="200" height="50" class="" fill="url(#L00100100099e6ff100003366.grad)"/><g transform="translate(0 0)" class="Text.cls"><rect x="0" y="0" width="199.99999999999997" height="50" fill="none" stroke="none"/><text font-family="Open Sans" fill="#000000" fill-opacity="1" class=""><tspan x="100" y="29.62" stroke="none" paint-order="stroke">Mlos.Core</tspan></text></g></g><g id="k8uv13r5vg" transform="translate(50 300)" class="" v:unit="{&quot;strokeWidth&quot;:&quot;px&quot;}"><rect x="0" y="0" width="200" height="50" class="" fill="url(#L00100100099e6ff100003366.grad)"/><g transform="translate(0 0)" class="Text.cls"><rect x="0" y="0" width="199.99999999999997" height="50" fill="none" stroke="none"/><text font-family="Open Sans" fill="#000000" fill-opacity="1" class=""><tspan x="100" y="29.62" stroke="none" paint-order="stroke">Mlos.SqlPal</tspan></text></g></g><g id="k8uv1h5ivj" transform="translate(50 350)" class="" v:unit="{&quot;strokeWidth&quot;:&quot;px&quot;}"><rect x="0" y="0" width="200" height="50" class="" fill="url(#L001001000ffffff100c7c7c7.grad)"/><g transform="translate(0 0)" class="Text.cls"><rect x="0" y="0" width="199.99999999999997" height="50" fill="none" stroke="none"/><text font-family="Open Sans" fill="#000000" fill-opacity="1" class=""><tspan x="100" y="29.62" stroke="none" paint-order="stroke">codegen_code.h</tspan></text></g></g><g id="k8uv2fqjxc" transform="translate(600 250)" class="" v:unit="{&quot;strokeWidth&quot;:&quot;px&quot;}"><rect x="0" y="0" width="200" height="50" class="" fill="url(#L001001000fff0cd100ffb813.grad)"/><g transform="translate(0 0)" class="Text.cls"><rect x="0" y="0" width="200" height="50" fill="none" stroke="none"/><text font-family="Cousine" fill="#000000" fill-opacity="1" class="" font-weight="bold" font-size="16px"><tspan x="100" y="30.28" stroke="none" paint-order="stroke">Gaia.Agent</tspan></text></g></g><g id="k8uv2op1xe" transform="translate(600 300)" class="" v:unit="{&quot;strokeWidth&quot;:&quot;px&quot;}"><rect x="0" y="0" width="200" height="50" class="" fill="url(#L00100100099e6ff100003366.grad)"/><g transform="translate(0 0)" class="Text.cls"><rect x="0" y="0" width="199.99999999999997" height="50" fill="none" stroke="none"/><text font-family="Open Sans" fill="#000000" fill-opacity="1" class=""><tspan x="100" y="29.62" stroke="none" paint-order="stroke">Mlos.Agent</tspan></text></g></g><g id="k8uv3i54xp" class="Group.cls" transform="translate(300 85)" v:abox="{&quot;x&quot;:300,&quot;y&quot;:85,&quot;width&quot;:255,&quot;height&quot;:90}"><g class="Prim.cls"><g id="k8uu6iya1dd" transform="translate(60 0)" class="" v:unit="{&quot;strokeWidth&quot;:&quot;px&quot;}"><rect x="0" y="0" width="195" height="20" fill="none" stroke="none" stroke-width="1"/><g transform="translate(-30 0)" class="Text.cls"><rect x="0" y="0" width="195" height="20" fill="none" stroke="none"/><text font-family="Open Sans" fill="#000000" fill-opacity="1" class=""><tspan x="97.5" y="14.62" stroke="none" paint-order="stroke">Control channel</tspan></text></g></g><g id="k8uv3bjnxl" class="Group.cls" transform="translate(0 30)" v:abox="{&quot;x&quot;:0,&quot;y&quot;:30,&quot;width&quot;:250,&quot;height&quot;:60}"><g class="Prim.cls"><g id="k8utv4twx2" transform="translate(50 0)" class="" v:unit="{&quot;strokeWidth&quot;:&quot;px&quot;}"><rect x="0" y="0" width="150" height="60" class="" fill="url(#L00100100087ebff100237b9a.grad)" stroke-width="1"/></g><g id="k8utzs9h10t" transform="translate(0 10)" class="" v:unit="{&quot;strokeWidth&quot;:&quot;px&quot;}" v:symbol="mAfagSl-rbvrVCaTuaCJ1p"><path d="M 0 0 L 20 0 L 40 20 L 20 40 L 0 40 Z" fill="url(#L00100100087ebff100237b9a.grad)" stroke-width="1"/><g transform="translate(-10 40)" class="Text.cls"><rect x="0" y="0" width="60" height="40" fill="none" stroke="none"/><text fill="#4f4f4f" fill-opacity="1" stroke="none"/></g></g><g id="k8utzv2k10u" transform="translate(210 10)" class="" v:unit="{&quot;strokeWidth&quot;:&quot;px&quot;}" v:symbol="mAfagSl-rbvrVCaTuaCJ1p"><path d="M 0 0 L 20 0 L 40 20 L 20 40 L 0 40 Z" fill="url(#L00100100087ebff100237b9a.grad)" stroke-width="1"/><g transform="translate(-10 40)" class="Text.cls"><rect x="0" y="0" width="60" height="40" fill="none" stroke="none"/><text fill="#4f4f4f" fill-opacity="1" stroke="none"/></g></g></g></g></g><g transform="translate(0 0)" class="Text.cls"><rect x="0" y="0" width="255" height="90" fill="none" stroke="none"/><text font-family="Open Sans" fill="#000000" fill-opacity="1"/></g></g><g id="k8uv3shuxv" class="Group.cls" transform="translate(300 200)" v:abox="{&quot;x&quot;:300,&quot;y&quot;:200,&quot;width&quot;:255,&quot;height&quot;:90}"><g class="Prim.cls"><g id="k8utvub310e" transform="translate(50 30)" class="" v:unit="{&quot;strokeWidth&quot;:&quot;px&quot;}"><rect x="0" y="0" width="150" height="60" class="" fill="url(#L00100100093f9b91001d976c.grad)" stroke-width="1"/></g><g id="k8uu2bc311x" transform="translate(60 0)" class="" v:unit="{&quot;strokeWidth&quot;:&quot;px&quot;}"><rect x="0" y="0" width="195" height="20" fill="none" stroke="none" stroke-width="1"/><g transform="translate(-30 0)" class="Text.cls"><rect x="0" y="0" width="195" height="20" fill="none" stroke="none"/><text font-family="Open Sans" fill="#000000" fill-opacity="1" class=""><tspan x="97.5" y="14.62" stroke="none" paint-order="stroke">Telemetry channel</tspan></text></g></g><g id="k8uu3ze21be" transform="translate(0 40)" class="" v:symbol="mAfagSl-rbvrVCaTuaCJ1p" v:unit="{&quot;strokeWidth&quot;:&quot;px&quot;}"><path d="M 0 0 L 20 0 L 40 20 L 20 40 L 0 40 Z" fill="url(#L00100100093f9b91001d976c.grad)" stroke-width="1"/><g transform="translate(-10 40)" class="Text.cls"><rect x="0" y="0" width="60" height="40" fill="none" stroke="none"/><text fill="#4f4f4f" fill-opacity="1" stroke="none"/></g></g><g id="k8uu432o1bf" transform="translate(210 40)" class="" v:symbol="mAfagSl-rbvrVCaTuaCJ1p" v:unit="{&quot;strokeWidth&quot;:&quot;px&quot;}"><path d="M 0 0 L 20 0 L 40 20 L 20 40 L 0 40 Z" fill="url(#L00100100093f9b91001d976c.grad)" stroke-width="1"/><g transform="translate(-10 40)" class="Text.cls"><rect x="0" y="0" width="60" height="40" fill="none" stroke="none"/><text fill="#4f4f4f" fill-opacity="1" stroke="none"/></g></g></g></g><g id="k8uv4598y1" class="Group.cls" transform="translate(300 310)" v:abox="{&quot;x&quot;:300,&quot;y&quot;:310,&quot;width&quot;:255,&quot;height&quot;:90}"><g class="Prim.cls"><g id="k8utxrgr10h" transform="translate(50 30)" class="" v:unit="{&quot;strokeWidth&quot;:&quot;px&quot;}"><rect x="0" y="0" width="150" height="60" fill="url(#L001001000f1a9eb100672965.grad)" class="" stroke-width="1"/><g transform="translate(0 0)" class="Text.cls"><rect x="0" y="0" width="150" height="59.99999999999999" fill="none" stroke="none"/><text font-family="Open Sans" fill="#000000" fill-opacity="1" font-weight="bold"/></g></g><g id="k8uu3bct1aj" transform="translate(0 40)" class="" v:unit="{&quot;strokeWidth&quot;:&quot;px&quot;}" v:symbol="mAw2tppUFPrZrqB4F6ZcNB"><path d="M 40 0 L 20 0 L 0 20 L 20 40 L 40 40 Z" fill="url(#L001001000f1a9eb100672965.grad)" stroke-width="1"/><g transform="translate(-10 40)" class="Text.cls"><rect x="0" y="0" width="60" height="30" fill="none" stroke="none"/><text fill="#4f4f4f" fill-opacity="1" stroke="none"/></g></g><g id="k8uu3jqo1at" transform="translate(210 40)" class="" v:symbol="mAw2tppUFPrZrqB4F6ZcNB" v:unit="{&quot;strokeWidth&quot;:&quot;px&quot;}"><path d="M 40 0 L 20 0 L 0 20 L 20 40 L 40 40 Z" fill="url(#L001001000f1a9eb100672965.grad)" stroke-width="1"/><g transform="translate(-10 40)" class="Text.cls"><rect x="0" y="0" width="60" height="30" fill="none" stroke="none"/><text fill="#4f4f4f" fill-opacity="1" stroke="none"/></g></g><g id="k8uu5vo21dc" transform="translate(60 0)" class="" v:unit="{&quot;strokeWidth&quot;:&quot;px&quot;}"><rect x="0" y="0" width="195" height="20" fill="none" stroke="none" stroke-width="1"/><g transform="translate(-30 0)" class="Text.cls"><rect x="0" y="0" width="195" height="20" fill="none" stroke="none"/><text font-family="Open Sans" fill="#000000" fill-opacity="1" class=""><tspan x="97.5" y="14.62" stroke="none" paint-order="stroke">Feedback channel</tspan></text></g></g></g><g transform="translate(0 0)" class="Text.cls"><rect x="0" y="0" width="255" height="90" fill="none" stroke="none"/><text font-family="Open Sans" fill="#000000" fill-opacity="1" font-weight="bold" class=""/></g></g><g id="k8uv5f7l10k" transform="translate(350 450)" class="" v:unit="{&quot;strokeWidth&quot;:&quot;px&quot;}"><rect x="0" y="0" width="150" height="150" class="" fill="url(#L001001000e5ffff10067b6ff.grad)"/><g transform="translate(0 0)" class="Text.cls"><rect x="0" y="0" width="111.29032135009766" height="161.53845425309808" fill="none" stroke="none"/><text font-family="Open Sans" fill="#000000" fill-opacity="1" font-weight="bold" class=""/></g></g><g id="k8uv845hst" transform="translate(355 424.9999694824219)" class=""><rect x="0" y="0" width="175" height="20" fill="none" stroke="none"/><g transform="translate(-25 0)" class="Text.cls"><rect x="0" y="0" width="175" height="20" fill="none" stroke="none"/><text font-family="Open Sans" fill="#000000" fill-opacity="1" class=""><tspan x="87.5" y="14.62" stroke="none" paint-order="stroke">Shared Configs</tspan></text></g></g><g id="k8uvu9jp40p" transform="translate(355 120)" class=""><rect x="0" y="0" width="25" height="20" fill="none" stroke="none"/><g transform="translate(-5 -5)" class="Text.cls"><rect x="0" y="0" width="25" height="20" fill="none" stroke="none"/><text font-family="Open Sans" fill="#000000" fill-opacity="1" class=""><tspan x="12.5" y="14.62" stroke="none" paint-order="stroke">1</tspan></text></g></g><g id="k8uvucbp40y" transform="translate(365 235)" class=""><rect x="0" y="0" width="25" height="25" fill="none" stroke="none"/><g transform="translate(-15 -5)" class="Text.cls"><rect x="0" y="0" width="25" height="25" fill="none" stroke="none"/><text font-family="Open Sans" fill="#000000" fill-opacity="1" class=""><tspan x="12.5" y="17.12" stroke="none" paint-order="stroke">2</tspan></text></g></g><g id="k8uvuj0d49r" transform="translate(360 345)" class=""><rect x="0" y="0" width="20" height="25.000030517578125" fill="none" stroke="none"/><g transform="translate(-10 -5)" class="Text.cls"><rect x="0" y="0" width="20" height="25.000030517578125" fill="none" stroke="none"/><text font-family="Open Sans" fill="#000000" fill-opacity="1" class=""><tspan x="10" y="17.120015258789063" stroke="none" paint-order="stroke">3</tspan></text></g></g><g id="k8uvulbp4a0" transform="translate(360 455.0000305175781)" class=""><rect x="0" y="0" width="25" height="30" fill="none" stroke="none"/><g transform="translate(-10 -5)" class="Text.cls"><rect x="0" y="0" width="25" height="30" fill="none" stroke="none"/><text font-family="Open Sans" fill="#000000" fill-opacity="1" class=""><tspan x="12.5" y="19.62" stroke="none" paint-order="stroke">4</tspan></text></g></g></svg></svg>